# xmcd
# Track frame offsets:
# 150
# 14350
# 31740
# 48912
# 61092
# 72217
# 87812
# 104530
# 119200
# 136977
# 151120
# 168082
#
# Disc length: 2911 seconds
# Revision: 0
# Processed by: cddbd v1.4PL0 Copyright (c) Steve Scherf et al.
# Submitted via: VisiTrax 2.9.5.181 - For more info visit www.synapsa.com
#
DISCID=920b5d0c
DTITLE=The Instigators - Chacka Chacka
DYEAR=2002
DGENRE=Blues
TTITLE0=Too late
TTITLE1=Across the tracks
TTITLE2=Tang
TTITLE3=I´m so lonesame
TTITLE4=Do It if you wanna
TTITLE5=Repo man
TTITLE6=El Capitain
TTITLE7=Get back !
TTITLE8=Do the kangaroo
TTITLE9=I get more
TTITLE10=My baby´s sweeter
TTITLE11=Young girl
EXTD=
EXTT0=
EXTT1=
EXTT2=
EXTT3=
EXTT4=
EXTT5=
EXTT6=
EXTT7=
EXTT8=
EXTT9=
EXTT10=
EXTT11=
PLAYORDER=
